<svg id="Grupo_31751" data-name="Grupo 31751" xmlns="http://www.w3.org/2000/svg" xmlns:xlink="http://www.w3.org/1999/xlink" width="22.66" height="23.668" viewBox="0 0 22.66 23.668">
  <defs>
    <clipPath id="clip-path">
      <rect id="Rectángulo_12032" data-name="Rectángulo 12032" width="22.66" height="23.669" fill="none"/>
    </clipPath>
    <clipPath id="clip-path-3">
      <rect id="Rectángulo_12029" data-name="Rectángulo 12029" width="22.66" height="22.66" fill="none"/>
    </clipPath>
    <clipPath id="clip-path-4">
      <rect id="Rectángulo_12030" data-name="Rectángulo 12030" width="11.721" height="10.874" fill="none"/>
    </clipPath>
  </defs>
  <g id="Grupo_31750" data-name="Grupo 31750" clip-path="url(#clip-path)">
    <g id="Grupo_31749" data-name="Grupo 31749">
      <g id="Grupo_31748" data-name="Grupo 31748" clip-path="url(#clip-path)">
        <g id="Grupo_31744" data-name="Grupo 31744" transform="translate(0 1.009)" opacity="0.2" style="mix-blend-mode: multiply;isolation: isolate">
          <g id="Grupo_31743" data-name="Grupo 31743">
            <g id="Grupo_31742" data-name="Grupo 31742" clip-path="url(#clip-path-3)">
              <path id="Trazado_40731" data-name="Trazado 40731" d="M11.33,7.005a11.33,11.33,0,1,0,11.33,11.33A11.33,11.33,0,0,0,11.33,7.005" transform="translate(0 -7.005)" fill="#000001"/>
              <path id="Trazado_40732" data-name="Trazado 40732" d="M9.661,26.605A9.938,9.938,0,0,0,19.6,36.544V16.667a9.938,9.938,0,0,0-9.938,9.938" transform="translate(-8.27 -15.275)" fill="#000001"/>
              <path id="Trazado_40733" data-name="Trazado 40733" d="M78.668,16.666V36.543a9.938,9.938,0,0,0,0-19.877" transform="translate(-67.338 -15.275)" fill="#000001"/>
            </g>
          </g>
        </g>
        <path id="Trazado_40734" data-name="Trazado 40734" d="M11.33,0A11.33,11.33,0,1,0,22.66,11.33,11.33,11.33,0,0,0,11.33,0" fill="#fff"/>
        <path id="Trazado_40735" data-name="Trazado 40735" d="M9.661,19.6A9.938,9.938,0,0,0,19.6,29.538V9.661A9.938,9.938,0,0,0,9.661,19.6" transform="translate(-8.27 -8.27)" fill="#f67a1f"/>
        <path id="Trazado_40736" data-name="Trazado 40736" d="M78.668,9.661V29.538a9.938,9.938,0,0,0,0-19.877" transform="translate(-67.338 -8.27)" fill="#ed8843"/>
        <g id="Grupo_31747" data-name="Grupo 31747" transform="translate(5.383 5.66)" style="mix-blend-mode: soft-light;isolation: isolate">
          <g id="Grupo_31746" data-name="Grupo 31746">
            <g id="Grupo_31745" data-name="Grupo 31745" clip-path="url(#clip-path-4)">
              <path id="Trazado_40737" data-name="Trazado 40737" d="M48.737,42.625A5.932,5.932,0,0,0,43.268,39.3c-3.25,0-5.893,2.375-5.893,5.294s2.643,5.294,5.893,5.294a6.447,6.447,0,0,0,2.583-.537l2.493.8a.5.5,0,0,0,.629-.623L48.3,47.353a4.126,4.126,0,0,0,.608-1.213,5.117,5.117,0,0,0-.17-3.515" transform="translate(-37.375 -39.304)" fill="#fff"/>
            </g>
          </g>
        </g>
        <path id="Trazado_40738" data-name="Trazado 40738" d="M46.1,48.183a.907.907,0,0,1-.279-.044l-2.35-.753a6.807,6.807,0,0,1-2.6.511c-3.472,0-6.3-2.556-6.3-5.7s2.825-5.7,6.3-5.7a6.308,6.308,0,0,1,5.837,3.559.4.4,0,1,1-.736.33,5.5,5.5,0,0,0-5.1-3.083c-3.027,0-5.49,2.194-5.49,4.89s2.468,4.891,5.5,4.89a6.007,6.007,0,0,0,2.416-.5.4.4,0,0,1,.284-.014l2.493.8s.121-.119.121-.12l-.675-2.177a.4.4,0,0,1,.053-.349,4.474,4.474,0,0,0,.558-1.113.4.4,0,1,1,.765.258,5.279,5.279,0,0,1-.548,1.148l.618,1.995a.906.906,0,0,1-.86,1.171Z" transform="translate(-29.594 -31.245)" fill="#fff"/>
        <path id="Trazado_40739" data-name="Trazado 40739" d="M116.719,71.983a.4.4,0,0,1-.4-.4l-.006-.226a.4.4,0,1,1,.806-.04l.007.266A.4.4,0,0,1,116.719,71.983Z" transform="translate(-99.558 -60.715)" fill="#fff"/>
      </g>
    </g>
  </g>
</svg>
