<svg id="configuraciones" xmlns="http://www.w3.org/2000/svg" width="22.73" height="22.73" viewBox="0 0 22.73 22.73">
  <path id="Trazado_40700" data-name="Trazado 40700" d="M22.224,9.438l-2.659-.653a8.568,8.568,0,0,0-.559-1.358l1.359-2.264a.663.663,0,0,0-.093-.812L18.38,2.46a.663.663,0,0,0-.813-.093L15.3,3.725a8.576,8.576,0,0,0-1.359-.559L13.305.506A.683.683,0,0,0,12.653,0H9.989a.683.683,0,0,0-.653.506L8.7,3.165a8.582,8.582,0,0,0-1.359.559L5.074,2.366a.663.663,0,0,0-.813.093L2.371,4.351a.663.663,0,0,0-.093.812L3.636,7.427a8.566,8.566,0,0,0-.559,1.358L.506,9.438A.656.656,0,0,0,0,10.078v2.664a.656.656,0,0,0,.506.639l2.571.653a8.569,8.569,0,0,0,.559,1.359L2.277,17.656a.663.663,0,0,0,.093.812L4.262,20.36a.663.663,0,0,0,.813.093l2.264-1.359a8.576,8.576,0,0,0,1.359.559l.639,2.57a.684.684,0,0,0,.653.506h2.664a.684.684,0,0,0,.653-.506l.639-2.57a8.578,8.578,0,0,0,1.359-.559l2.264,1.359a.663.663,0,0,0,.813-.093l1.891-1.891a.663.663,0,0,0,.093-.812l-1.359-2.264a8.567,8.567,0,0,0,.559-1.359l2.659-.653a.656.656,0,0,0,.506-.639V10.078A.656.656,0,0,0,22.224,9.438Zm-10.9,5.3a3.33,3.33,0,1,1,3.33-3.33A3.331,3.331,0,0,1,11.321,14.739Z" fill="#c5c9f7"/>
  <path id="Trazado_40701" data-name="Trazado 40701" d="M266.41,10.078v2.664a.656.656,0,0,1-.506.639l-2.659.653a8.568,8.568,0,0,1-.559,1.359l1.359,2.264a.663.663,0,0,1-.093.812l-1.891,1.891a.663.663,0,0,1-.813.093l-2.264-1.359a8.577,8.577,0,0,1-1.359.559l-.639,2.57a.684.684,0,0,1-.653.506H255V14.739a3.33,3.33,0,0,0,0-6.659V0h1.332a.683.683,0,0,1,.653.506l.639,2.659a8.582,8.582,0,0,1,1.359.559l2.264-1.358a.663.663,0,0,1,.813.093l1.891,1.891a.663.663,0,0,1,.093.812l-1.359,2.264a8.568,8.568,0,0,1,.559,1.358l2.659.653A.656.656,0,0,1,266.41,10.078Z" transform="translate(-243.679)" fill="#a8aff1"/>
</svg>
