<svg xmlns="http://www.w3.org/2000/svg" width="12.988" height="16.135" viewBox="0 0 12.988 16.135">
  <g id="ADD_PERSON" data-name="ADD PERSON" transform="translate(-55.117)">
    <path id="Trazado_40696" data-name="Trazado 40696" d="M61.837,277.993a26.415,26.415,0,0,1-4.523-.356,2.713,2.713,0,0,1-1.455-.879,2.813,2.813,0,0,1-.69-1.55v-.017a8.907,8.907,0,0,1-.039-1.249,5.944,5.944,0,0,1,.039-1.034v-.017a2.4,2.4,0,0,1,.693-1.447,2.446,2.446,0,0,1,1.458-.7c.808-.085,3.265-.132,4.515-.132s3.254.046,4.062.132a2.444,2.444,0,0,1,1.458.7,2.4,2.4,0,0,1,.7,1.447v.017a8.9,8.9,0,0,1,.06,1.034,11.832,11.832,0,0,1-.06,1.25l0,.017a2.823,2.823,0,0,1-.691,1.55,2.7,2.7,0,0,1-1.455.879A24.192,24.192,0,0,1,61.837,277.993Z" transform="translate(-0.006 -261.862)" fill="#dedede"/>
    <circle id="Elipse_564" data-name="Elipse 564" cx="3.905" cy="3.905" r="3.905" transform="translate(57.625 0)" fill="#fff"/>
    <path id="Trazado_40697" data-name="Trazado 40697" d="M65.517,270.71c-.946-.065-2.6-.1-3.685-.1-1.249,0-3.707.047-4.515.132a2.445,2.445,0,0,0-1.46.7,2.4,2.4,0,0,0-.694,1.447v.017a6.116,6.116,0,0,0-.039,1.035,8.907,8.907,0,0,0,.039,1.249v.017a2.692,2.692,0,0,0,.259.9,8.794,8.794,0,0,0,10.1-5.4Z" transform="translate(0 -261.862)" fill="#fff"/>
  </g>
</svg>
