<svg xmlns="http://www.w3.org/2000/svg" width="24.213" height="24.194" viewBox="0 0 24.213 24.194">
  <g id="Grupo_31840" data-name="Grupo 31840" transform="translate(-35.556 -957.184)">
    <g id="Grupo_31684" data-name="Grupo 31684" transform="translate(-2391 6486.931)">
      <g id="_x30_3_Mexico" transform="translate(2426.136 -5530.372)">
        <g id="Grupo_31667" data-name="Grupo 31667" transform="translate(0.42 0.625)">
          <g id="Grupo_31662" data-name="Grupo 31662" transform="translate(0 3.608)">
            <path id="Trazado_40672" data-name="Trazado 40672" d="M7.846,77.93c-.456.571-1.081.286-2.26.36C4.4,77.7,3.515,76.8,1.821,76.8h-.6a.782.782,0,0,0-.782.782c.249,6.661-.985,4.867,2.492,8.662.229.25.093.44.114,1.862a.513.513,0,0,0,.842.4,2.366,2.366,0,0,0,.35-3.262c-.541-.7-1.147-1.452-1.664-2.014a.719.719,0,0,1,.821-1.153c.381.258,1.446.408,1.446,1.41,0,1.279,2.574,1.946,2.574,4.149A3.252,3.252,0,0,0,8.5,89.861V77.577a.956.956,0,0,0-.657.353Z" transform="translate(-0.42 -76.8)" fill="#00a75d"/>
            <path id="Trazado_40673" data-name="Trazado 40673" d="M178.786,99.341a.7.7,0,0,0-.7-.708c-.768.006-.7-.785-1.91-3.037a.834.834,0,0,0-1.508.008.667.667,0,0,1-1.076.19,1.065,1.065,0,0,1-.432-.77c0-.546-.438-.692-1.3-1.642a.959.959,0,0,0-.779-.273v12.284c1.006,1.044,2.246,1.75,1.541,2.456a.668.668,0,0,0,.131,1.048l6.393,3.768V105.18C178.572,103.337,178.871,102.144,178.786,99.341Z" transform="translate(-162.989 -92.333)" fill="#00a75d"/>
            <path id="Trazado_40674" data-name="Trazado 40674" d="M348.835,348.494H347.2a.836.836,0,0,0-.842.833c.008.754-.788.864-1.271,1.2a2.288,2.288,0,0,1-3.086-.9,10.219,10.219,0,0,1-.677-1.61V355.5l.083.049a1.475,1.475,0,0,0,1.789-.227.764.764,0,0,1,1.081,0,.767.767,0,0,0,1.084,0c.429-.5.875-.678.854-1.245a.825.825,0,0,1,.863-.812,1.645,1.645,0,0,0,1.464-.921l.79-3.052A.556.556,0,0,0,348.835,348.494Z" transform="translate(-325.178 -335.17)" fill="#00a75d"/>
          </g>
          <g id="Grupo_31663" data-name="Grupo 31663" transform="translate(0.027 3.601)" opacity="0.08">
            <path id="Trazado_40675" data-name="Trazado 40675" d="M12.221,80.28a.809.809,0,0,0-.257.317.667.667,0,0,1-1.076.19,1.065,1.065,0,0,1-.432-.77c0-.546-.438-.692-1.3-1.642a.975.975,0,0,0-1.436.08c-.456.571-1.081.286-2.26.36-1.189-.589-2.072-1.49-3.765-1.49a6.668,6.668,0,0,0-.7.008c.115-.911,1.192-.641,1.374-.682,1.694,0,2.576.9,3.765,1.49,1.179-.075,1.8.211,2.26-.36a.975.975,0,0,1,1.436-.08c.867.95,1.3,1.1,1.3,1.642a1.065,1.065,0,0,0,.432.77.66.66,0,0,0,.659.167Z" transform="translate(-0.989 -76.643)"/>
            <path id="Trazado_40676" data-name="Trazado 40676" d="M250.693,148.938a2.288,2.288,0,0,1-3.086-.9,8.414,8.414,0,0,1-1.03-3.964v-3.485a.7.7,0,0,0-.7-.708c-.767.005-.7-.785-1.91-3.037a.825.825,0,0,0-1.022-.427.672.672,0,0,0,.188-.239.834.834,0,0,1,1.508-.008c1.21,2.252,1.143,3.042,1.91,3.037a.7.7,0,0,1,.7.708c.086,2.813-.216,3.983.353,5.84a10.056,10.056,0,0,0,.677,1.609,2.288,2.288,0,0,0,3.086.9,5.192,5.192,0,0,1,.571-.306C251.807,148.518,251.125,148.636,250.693,148.938Z" transform="translate(-231.482 -132.898)"/>
          </g>
          <g id="Grupo_31664" data-name="Grupo 31664" transform="translate(11.259 7.119)" opacity="0.08">
            <path id="Trazado_40677" data-name="Trazado 40677" d="M238.107,151.033a.749.749,0,0,1,.229-.118A.67.67,0,0,1,238.107,151.033Z" transform="translate(-238.107 -150.915)"/>
          </g>
          <g id="Grupo_31666" data-name="Grupo 31666" transform="translate(10.798 0)">
            <path id="Trazado_40678" data-name="Trazado 40678" d="M232.419.625a4.056,4.056,0,0,0-4.053,4.053c0,1.8,2.622,6.414,3.648,8.151a.47.47,0,0,0,.81,0c1.026-1.737,3.646-6.35,3.646-8.151A4.054,4.054,0,0,0,232.419.625Zm0,6.391a2.338,2.338,0,1,1,2.338-2.338A2.34,2.34,0,0,1,232.419,7.016Z" transform="translate(-228.366 -0.625)" fill="#ffce29"/>
            <g id="Grupo_31665" data-name="Grupo 31665" transform="translate(1.591 7.004)" opacity="0.4">
              <path id="Trazado_40679" data-name="Trazado 40679" d="M262.406,149.859q-.215-.428-.421-.86a.353.353,0,1,1,.638-.3q.2.425.414.846a.353.353,0,1,1-.631.317Z" transform="translate(-261.951 -148.495)" fill="#fff"/>
            </g>
            <path id="Trazado_40680" data-name="Trazado 40680" d="M308.369,4.678c0,1.8-2.62,6.414-3.646,8.151a.47.47,0,0,1-.81,0c-.024-.04-.047-.082-.073-.125,1.073-1.824,3.573-6.268,3.573-8.026A4.057,4.057,0,0,0,303.841.653a4,4,0,0,1,.478-.028,4.054,4.054,0,0,1,4.051,4.053Z" transform="translate(-300.266 -0.625)" opacity="0.08"/>
          </g>
        </g>
      </g>
    </g>
  </g>
</svg>
