<svg xmlns="http://www.w3.org/2000/svg" width="25.203" height="24.152" viewBox="0 0 25.203 24.152">
  <g id="encuesta-en-linea" transform="translate(-3.695 -6.39)">
    <path id="Trazado_40579" data-name="Trazado 40579" d="M24.327,16A1.575,1.575,0,0,1,25.9,17.575V37a1.575,1.575,0,0,1-1.575,1.575H8.575A1.575,1.575,0,0,1,7,37V17.575A1.575,1.575,0,0,1,8.575,16Z" transform="translate(-3.305 -8.035)" fill="#6b493f"/>
    <rect id="Rectángulo_11868" data-name="Rectángulo 11868" width="15.133" height="18.159" rx="1" transform="translate(5.178 10.776)" fill="#fff"/>
    <path id="Trazado_40581" data-name="Trazado 40581" d="M25.3,14.575v2.1a.525.525,0,0,1-.525.525h-5.25A.525.525,0,0,1,19,16.675v-2.1a.525.525,0,0,1,.525-.525H20.67a1.569,1.569,0,0,1,2.961,0h1.145A.525.525,0,0,1,25.3,14.575Z" transform="translate(-9.004 -6.61)" fill="#aac7c8"/>
    <path id="Trazado_40586" data-name="Trazado 40586" d="M15.05,29.15A.525.525,0,0,1,14.679,29l-.525-.525a.525.525,0,1,1,.742-.742l.1.1,1.212-1.616a.525.525,0,1,1,.84.63l-1.575,2.1a.525.525,0,0,1-.383.21Z" transform="translate(-6.63 -12.784)" fill="#6ac579"/>
    <path id="Trazado_40587" data-name="Trazado 40587" d="M28.826,29.05h-6.3a.525.525,0,1,1,0-1.05h6.3a.525.525,0,1,1,0,1.05Z" transform="translate(-10.429 -13.734)" fill="#aac7c8"/>
    <path id="Trazado_40588" data-name="Trazado 40588" d="M15.05,38.15A.525.525,0,0,1,14.679,38l-.525-.525a.525.525,0,1,1,.742-.742l.1.1,1.212-1.616a.525.525,0,0,1,.84.63l-1.575,2.1a.525.525,0,0,1-.383.21Z" transform="translate(-6.63 -17.059)" fill="#6ac579"/>
    <path id="Trazado_40589" data-name="Trazado 40589" d="M28.826,38.05h-6.3a.525.525,0,1,1,0-1.05h6.3a.525.525,0,1,1,0,1.05Z" transform="translate(-10.429 -18.009)" fill="#aac7c8"/>
    <path id="Trazado_40590" data-name="Trazado 40590" d="M15.05,47.15A.525.525,0,0,1,14.679,47l-.525-.525a.525.525,0,1,1,.742-.742l.1.1,1.212-1.616a.525.525,0,1,1,.84.63l-1.575,2.1a.525.525,0,0,1-.383.21Z" transform="translate(-6.63 -21.333)" fill="#6ac579"/>
    <path id="Trazado_40591" data-name="Trazado 40591" d="M27.776,47.05h-5.25a.525.525,0,0,1,0-1.05h5.25a.525.525,0,0,1,0,1.05Z" transform="translate(-10.429 -22.283)" fill="#aac7c8"/>
    <path id="Trazado_40592" data-name="Trazado 40592" d="M36.033,44.635a3.048,3.048,0,0,1-.872.6L32.825,46.3a.583.583,0,0,1-.772-.772l1.061-2.336a3.049,3.049,0,0,1,.6-.872l1.433.882Z" transform="translate(-15.179 -20.535)" fill="#e7bda0"/>
    <path id="Trazado_40593" data-name="Trazado 40593" d="M42.857,33.974l-.252.793-5.019,5.019L35.27,37.471l5.019-5.019.84-.341Z" transform="translate(-16.732 -15.686)" fill="#d69c0b"/>
    <path id="Trazado_40594" data-name="Trazado 40594" d="M47.275,29.237l.263-.759L48.7,27.319a1.094,1.094,0,0,1,1.545,0l.77.77a1.094,1.094,0,0,1,0,1.545l-1.159,1.159-.886.349Z" transform="translate(-22.434 -13.259)" fill="#c74c5e"/>
    <path id="Trazado_40595" data-name="Trazado 40595" d="M0,0H2.184V3.276H0Z" transform="translate(23.554 16.764) rotate(-45)" fill="#fff"/>
    <path id="Trazado_40596" data-name="Trazado 40596" d="M33.665,48.059l-.84.383a.583.583,0,0,1-.772-.772l.383-.84Z" transform="translate(-15.179 -22.677)" fill="#0e3454"/>
  </g>
</svg>
