<?xml version="1.0" encoding="UTF-8"?>
<svg id="Layer_1" data-name="Layer 1" xmlns="http://www.w3.org/2000/svg" viewBox="0 0 300 300">
  <defs>
    <style>
      .cls-1 {
        fill: #eee1dd;
      }

      .cls-2 {
        fill: #fff5f5;
      }

      .cls-3 {
        fill: #ff4a00;
      }

      .cls-4 {
        fill: #fdbf00;
      }

      .cls-5 {
        fill: #f13700;
      }

      .cls-6 {
        fill: #c4b4af;
      }

      .cls-7 {
        fill: #fce000;
      }

      .cls-8 {
        fill: #ff6f2f;
      }
    </style>
  </defs>
  <path class="cls-3" d="M224.337,208.148c4.728,0,8.561-3.833,8.561-8.561v-90.494c0-45.664-37.15-82.814-82.814-82.814s-82.814,37.15-82.814,82.814v90.494c0,4.728,3.833,8.561,8.561,8.561h148.506Z"/>
  <path class="cls-5" d="M150.084,26.279c-.192,0-.383.006-.575.007v181.861h74.828c4.728,0,8.561-3.833,8.561-8.561v-90.494c0-45.663-37.15-82.814-82.814-82.814Z"/>
  <path class="cls-8" d="M135.122,208.148v-75.028c0-4.728,3.833-8.561,8.561-8.561h11.652c4.728,0,8.561,3.833,8.561,8.561v75.028h-28.774Z"/>
  <path class="cls-3" d="M163.896,133.12c0-4.728-3.833-8.561-8.561-8.561h-5.826v83.589h14.387v-75.028h0Z"/>
  <path class="cls-4" d="M190.162,99.19c-18.887,0-34.252,15.365-34.252,34.252s15.365,34.252,34.252,34.252c4.728,0,8.561-3.833,8.561-8.561v-51.381c0-4.729-3.833-8.562-8.561-8.562h0Z"/>
  <path class="cls-7" d="M110.007,98.868c-4.728,0-8.561,3.833-8.561,8.561v51.381c0,4.728,3.833,8.561,8.561,8.561,18.886,0,34.252-15.365,34.252-34.252s-15.366-34.251-34.252-34.251h0Z"/>
  <path class="cls-2" d="M235.847,191.026H64.322c-4.728,0-8.561,3.833-8.561,8.561v35.68c0,4.728,3.833,8.561,8.561,8.561h171.525c4.728,0,8.561-3.833,8.561-8.561v-35.68c0-4.728-3.833-8.561-8.561-8.561Z"/>
  <path class="cls-1" d="M235.847,191.026h-86.338v52.802h86.338c4.728,0,8.561-3.833,8.561-8.561v-35.68c0-4.728-3.833-8.561-8.561-8.561Z"/>
  <path class="cls-1" d="M249.745,226.706H50.423c-4.728,0-8.561,3.833-8.561,8.561v30.501c0,4.728,3.833,8.561,8.561,8.561h199.322c4.728,0,8.561-3.833,8.561-8.561v-30.501c0-4.728-3.832-8.561-8.561-8.561Z"/>
  <path class="cls-6" d="M249.745,226.706h-100.236v47.623h100.237c4.728,0,8.561-3.833,8.561-8.561v-30.501c0-4.728-3.833-8.561-8.562-8.561Z"/>
  <path class="cls-3" d="M250.677,149.987c-1.78,0-3.573-.552-5.11-1.698-3.791-2.826-4.573-8.189-1.748-11.98,4.718-6.329,4.761-21.024.079-27.109-2.883-3.747-2.182-9.122,1.565-12.005,3.747-2.883,9.123-2.183,12.005,1.565,9.319,12.114,9.358,35.335.079,47.783-1.68,2.254-4.259,3.445-6.871,3.445Z"/>
  <path class="cls-3" d="M277.82,165.358c-1.748,0-3.512-.534-5.033-1.642-3.822-2.784-4.663-8.139-1.879-11.961,10.039-13.78,10.078-44.682.073-58.01-2.839-3.781-2.075-9.148,1.706-11.987,3.781-2.839,9.148-2.075,11.987,1.707,6.993,9.315,10.982,23.602,10.943,39.199-.038,15.465-4,29.743-10.87,39.172-1.676,2.301-4.283,3.521-6.927,3.521Z"/>
  <g>
    <path class="cls-8" d="M48.341,149.987c-2.611,0-5.19-1.191-6.871-3.445-9.279-12.448-9.24-35.669.079-47.783,2.883-3.747,8.259-4.448,12.005-1.565,3.747,2.883,4.448,8.258,1.565,12.005-4.682,6.085-4.64,20.781.079,27.109,2.826,3.791,2.043,9.155-1.748,11.98-1.536,1.145-3.331,1.698-5.11,1.698Z"/>
    <path class="cls-8" d="M21.197,165.358c-2.644,0-5.251-1.22-6.927-3.521-6.869-9.429-10.831-23.707-10.87-39.172-.039-15.597,3.949-29.884,10.943-39.199,2.839-3.782,8.204-4.545,11.987-1.707,3.781,2.839,4.545,8.205,1.707,11.987-10.005,13.327-9.966,44.229.073,58.01,2.784,3.822,1.943,9.177-1.879,11.961-1.521,1.108-3.285,1.641-5.033,1.641h0Z"/>
  </g>
</svg>