<svg xmlns="http://www.w3.org/2000/svg" width="24.007" height="21.032" viewBox="0 0 24.007 21.032">
  <g id="Grupo_31812" data-name="Grupo 31812" transform="translate(-40.405 -1272.556)">
    <g id="riesgo" transform="translate(40.405 1272.556)">
      <path id="Trazado_40827" data-name="Trazado 40827" d="M80.573,182.491l-11.1-19.233a.9.9,0,0,0-1.558,0l-11.1,19.233a.9.9,0,0,0,.779,1.349H79.794a.9.9,0,0,0,.779-1.349Z" transform="translate(-56.686 -162.808)" fill="#ffe666"/>
      <path id="Trazado_40828" data-name="Trazado 40828" d="M256.187,163.258a.9.9,0,0,0-.779-.45l-.046,0v7.565l.6,2.733-.6,2.735v2.275l.6.991-.6.991v3.74h11.15a.9.9,0,0,0,.779-1.349Z" transform="translate(-243.404 -162.808)" fill="#fabe2c"/>
      <path id="Trazado_40829" data-name="Trazado 40829" d="M242.082,288.495a.9.9,0,0,0-.9.9v3.671a.9.9,0,1,0,1.8,0v-3.671A.9.9,0,0,0,242.082,288.495Z" transform="translate(-230.079 -280.93)" fill="#f66"/>
      <circle id="Elipse_573" data-name="Elipse 573" cx="0.991" cy="0.991" r="0.991" transform="translate(11.013 15.31)" fill="#f66"/>
      <g id="Grupo_31811" data-name="Grupo 31811" transform="translate(11.958 7.565)">
        <path id="Trazado_40834" data-name="Trazado 40834" d="M255.408,417.188l-.046,0v1.977l.046,0a.991.991,0,0,0,0-1.982Z" transform="translate(-255.362 -409.442)" fill="#e62e6b"/>
        <path id="Trazado_40835" data-name="Trazado 40835" d="M255.408,288.495l-.046,0v5.465l.046,0a.9.9,0,0,0,.9-.9v-3.672A.9.9,0,0,0,255.408,288.495Z" transform="translate(-255.362 -288.495)" fill="#e62e6b"/>
      </g>
    </g>
  </g>
</svg>
