<?xml version="1.0" encoding="UTF-8"?>
<svg id="Capa_2" xmlns="http://www.w3.org/2000/svg" version="1.1" viewBox="0 0 37 40">
  <!-- Generator: Adobe Illustrator 30.1.0, SVG Export Plug-In . SVG Version: 2.1.1 Build 136)  -->
  <defs>
    <style>
      .st0 {
        fill: none;
        stroke: #fff;
        stroke-miterlimit: 10;
        stroke-width: 3px;
      }

      .st1 {
        fill: #3ec53e;
      }
    </style>
  </defs>
  <g id="Capa_1-2">
    <g id="Grupo_31722">
      <path id="Trazado_40718" class="st1" d="M30.7,8.4l-.7,18.8c0,1.3-.6,2.5-1.6,3.4l-7.8,6.8c-1.9,1.6-4.7,1.5-6.5-.3l-7.3-7.4c-.9-.9-1.4-2.2-1.4-3.5l.7-18.8c0-2.2,1.9-3.9,4.1-3.8l16.6.7c2.2,0,3.9,1.9,3.8,4.1"/>
      <path id="Trazado_40719" class="st0" d="M30.7,8.4l-.7,18.8c0,1.3-.6,2.5-1.6,3.4l-7.8,6.8c-1.9,1.6-4.7,1.5-6.5-.3l-7.3-7.4c-.9-.9-1.4-2.2-1.4-3.5l.7-18.8c0-2.2,1.9-3.9,4.1-3.8l16.6.7c2.2,0,3.9,1.9,3.8,4.1h0Z"/>
    </g>
  </g>
</svg>