<svg xmlns="http://www.w3.org/2000/svg" width="17.046" height="16.3" viewBox="0 0 17.046 16.3">
  <path id="Trazado_32962" d="M3,10.25,4.611,8.639m0,0L10.25,3l5.639,5.639m-11.278,0v8.056a.806.806,0,0,0,.806.806H7.833m8.056-8.861L17.5,10.25M15.889,8.639v8.056a.806.806,0,0,1-.806.806H12.667m-4.833,0a.806.806,0,0,0,.806-.806V13.472a.806.806,0,0,1,.806-.806h1.611a.806.806,0,0,1,.806.806v3.222a.806.806,0,0,0,.806.806m-4.833,0h4.833" transform="translate(-1.727 -2.1)" fill="none" stroke="#333" stroke-linecap="round" stroke-linejoin="round" stroke-width="1.8"/>
</svg>
