<svg xmlns="http://www.w3.org/2000/svg" width="19.336" height="14.104" viewBox="0 0 19.336 14.104">
  <g id="menu_1_" data-name="menu (1)" transform="translate(0.25 0.25)">
    <path id="Trazado_4" data-name="Trazado 4" d="M18.051,124.238H.785a.785.785,0,1,1,0-1.57H18.051a.785.785,0,1,1,0,1.57Zm0,0" transform="translate(0 -116.651)" fill="#32342e" stroke="#32342e" stroke-width="0.5"/>
    <path id="Trazado_5" data-name="Trazado 5" d="M18.051,1.57H.785A.785.785,0,1,1,.785,0H18.051a.785.785,0,1,1,0,1.57Zm0,0" fill="#32342e" stroke="#32342e" stroke-width="0.5"/>
    <path id="Trazado_6" data-name="Trazado 6" d="M18.051,246.9H.785a.785.785,0,1,1,0-1.57H18.051a.785.785,0,1,1,0,1.57Zm0,0" transform="translate(0 -233.298)" fill="#32342e" stroke="#32342e" stroke-width="0.5"/>
  </g>
</svg>
