<svg id="_038---Guaranteed-Interest-Rate" data-name="038---Guaranteed-Interest-Rate" xmlns="http://www.w3.org/2000/svg" width="18.669" height="24.001" viewBox="0 0 18.669 24.001">
  <path id="Path" d="M41.612,45.835l2.354,5.647a.667.667,0,0,1-.747.907l-1.76-.347a.653.653,0,0,0-.6.18l-.967.967a.667.667,0,0,1-1.107-.28l-1.007-3.274-1.726-5.492Z" transform="translate(-28.684 -29.38)" fill="#64931b"/>
  <path id="Path-2" data-name="Path" d="M32.049,45.835,29.7,51.482a.667.667,0,0,0,.747.907l1.76-.347a.653.653,0,0,1,.6.18l.967.967a.667.667,0,0,0,1.107-.28l1.007-3.274,1.726-5.492Z" transform="translate(-26.548 -29.38)" fill="#72aa22"/>
  <path id="Path-3" data-name="Path" d="M43.421,31.428l-.991,1.38a1.359,1.359,0,0,0-.248.74l-.035,1.681a1.339,1.339,0,0,1-.922,1.233l-1.638.547a1.35,1.35,0,0,0-.647.46L37.893,38.8a1.4,1.4,0,0,1-1.5.473l-1.659-.487a1.359,1.359,0,0,0-.8,0l-1.659.487a1.4,1.4,0,0,1-1.5-.473l-1.046-1.34a1.383,1.383,0,0,0-.647-.453l-1.638-.547a1.339,1.339,0,0,1-.922-1.233l-.033-1.681a1.359,1.359,0,0,0-.248-.74l-.991-1.38a1.289,1.289,0,0,1,0-1.52l.991-1.38a1.359,1.359,0,0,0,.248-.74l.035-1.681a1.339,1.339,0,0,1,.922-1.233l1.638-.547a1.35,1.35,0,0,0,.647-.46l1.046-1.333a1.4,1.4,0,0,1,1.5-.473l1.659.487a1.359,1.359,0,0,0,.8,0l1.659-.487a1.4,1.4,0,0,1,1.5.473l1.046,1.34a1.383,1.383,0,0,0,.647.453l1.638.547a1.339,1.339,0,0,1,.922,1.233l.035,1.681a1.359,1.359,0,0,0,.248.74l.991,1.38A1.289,1.289,0,0,1,43.421,31.428Z" transform="translate(-25 -22)" fill="#7dbf29"/>
  <ellipse id="Oval" cx="5" cy="5.5" rx="5" ry="5.5" transform="translate(4.335 3.002)" fill="#92d149"/>
  <g id="Grupo_31359" data-name="Grupo 31359" transform="translate(6.676 6)">
    <path id="Path-4" data-name="Path" d="M37,36.334a.667.667,0,0,1-.471-.2L35.2,34.805a.667.667,0,0,1,.943-.943l.759.759L39.117,31.3a.667.667,0,0,1,1.109.74l-2.667,4a.667.667,0,0,1-.489.293A.447.447,0,0,1,37,36.334Z" transform="translate(-35.012 -31)" fill="#fff"/>
  </g>
</svg>
