<svg xmlns="http://www.w3.org/2000/svg" width="22" height="22" viewBox="0 0 22 22">
  <g id="Grupo_31842" data-name="Grupo 31842" transform="translate(-3572.479 5230.412)">
    <circle id="Elipse_571" data-name="Elipse 571" cx="11" cy="11" r="11" transform="translate(3572.479 -5230.412)" fill="#edeff7"/>
    <path id="ordenar-por" d="M10.34,12.493a.727.727,0,0,1-1.028.017h0L7.254,10.521v8.851a.727.727,0,1,1-1.454,0V10.521L3.741,12.511a.727.727,0,1,1-1.028-1.029l.018-.017,3.29-3.18c.012-.012.026-.02.039-.031l.012-.01c.016-.013.03-.028.047-.039l.009,0c.02-.013.041-.023.061-.033s.042-.023.064-.032a.712.712,0,0,1,.069-.022c.019-.006.037-.013.057-.017h.009c.023,0,.047-.006.07-.008s.042-.006.064-.006h.009c.021,0,.042,0,.063.006s.047,0,.07.008h.01c.019,0,.037.012.056.017a.719.719,0,0,1,.07.022l.01,0c.018.008.035.019.052.028a.693.693,0,0,1,.062.034l.009.005c.015.01.027.023.041.034l.019.016c.012.01.026.019.038.03l3.29,3.181a.727.727,0,0,1,.018,1.028ZM17.975,17.5a.727.727,0,0,0-1.028-.017h0l-2.058,1.989V10.625a.727.727,0,1,0-1.454,0v8.851l-2.058-1.989a.727.727,0,1,0-1.029,1.027l.019.018,3.29,3.18c.013.013.028.021.041.033l.03.025c.012.009.022.018.034.026a.712.712,0,0,0,.065.035c.018.009.034.02.053.028l.008,0a.716.716,0,0,0,.078.024c.017,0,.034.012.051.015h.005a.716.716,0,0,0,.278,0h.005c.018,0,.034-.011.051-.015a.716.716,0,0,0,.078-.024l.008,0c.019-.008.035-.019.053-.028a.712.712,0,0,0,.065-.035c.012-.008.023-.018.034-.026l.03-.025c.014-.011.028-.02.041-.033l3.291-3.18a.727.727,0,0,0,.018-1.028Z" transform="translate(3572.979 -5234.492)" fill="#393a36"/>
  </g>
</svg>
