<svg xmlns="http://www.w3.org/2000/svg" width="32" height="32" viewBox="0 0 32 32">
  <g id="Grupo_31733" data-name="Grupo 31733" transform="translate(-335 -107.414)">
    <circle id="Elipse_93" data-name="Elipse 93" cx="16" cy="16" r="16" transform="translate(335 107.414)" fill="#d9d9d9"/>
    <g id="informacion_3_" data-name="informacion (3)" transform="translate(316.861 116.414)">
      <path id="Trazado_39821" data-name="Trazado 39821" d="M37.195,12.6l-.2.807q-.888.351-1.418.534a3.739,3.739,0,0,1-1.229.184,2.454,2.454,0,0,1-1.672-.524,1.7,1.7,0,0,1-.6-1.332,4.713,4.713,0,0,1,.044-.641q.045-.328.144-.74l.74-2.62q.1-.376.167-.713a3.1,3.1,0,0,0,.067-.614.95.95,0,0,0-.207-.7,1.17,1.17,0,0,0-.792-.2,2.074,2.074,0,0,0-.588.09c-.2.06-.373.117-.518.17l.2-.808q.727-.3,1.392-.507a4.162,4.162,0,0,1,1.258-.211,2.394,2.394,0,0,1,1.647.516,1.713,1.713,0,0,1,.579,1.341c0,.114-.013.314-.04.6a4.02,4.02,0,0,1-.148.79l-.737,2.609a6.93,6.93,0,0,0-.162.719,3.7,3.7,0,0,0-.072.61.879.879,0,0,0,.232.709,1.31,1.31,0,0,0,.806.188,2.328,2.328,0,0,0,.61-.094A3.409,3.409,0,0,0,37.195,12.6ZM37.381,1.65a1.527,1.527,0,0,1-.516,1.162,1.755,1.755,0,0,1-1.241.481,1.775,1.775,0,0,1-1.248-.481,1.523,1.523,0,0,1-.52-1.162,1.539,1.539,0,0,1,.52-1.166,1.842,1.842,0,0,1,2.489,0A1.541,1.541,0,0,1,37.381,1.65Z" fill="#626260"/>
    </g>
  </g>
</svg>
