<svg id="Grupo_31761" data-name="Grupo 31761" xmlns="http://www.w3.org/2000/svg" xmlns:xlink="http://www.w3.org/1999/xlink" width="23.301" height="24.338" viewBox="0 0 23.301 24.338">
  <defs>
    <clipPath id="clip-path">
      <rect id="Rectángulo_12036" data-name="Rectángulo 12036" width="23.3" height="24.338" fill="none"/>
    </clipPath>
    <clipPath id="clip-path-3">
      <rect id="Rectángulo_12033" data-name="Rectángulo 12033" width="23.3" height="23.3" fill="none"/>
    </clipPath>
    <clipPath id="clip-path-4">
      <rect id="Rectángulo_12034" data-name="Rectángulo 12034" width="12.929" height="10.948" fill="none"/>
    </clipPath>
  </defs>
  <g id="Grupo_31760" data-name="Grupo 31760" clip-path="url(#clip-path)">
    <g id="Grupo_31759" data-name="Grupo 31759">
      <g id="Grupo_31758" data-name="Grupo 31758" clip-path="url(#clip-path)">
        <g id="Grupo_31754" data-name="Grupo 31754" transform="translate(0 1.037)" opacity="0.2" style="mix-blend-mode: multiply;isolation: isolate">
          <g id="Grupo_31753" data-name="Grupo 31753">
            <g id="Grupo_31752" data-name="Grupo 31752" clip-path="url(#clip-path-3)">
              <path id="Trazado_40738" data-name="Trazado 40738" d="M11.65,7.005A11.65,11.65,0,1,0,23.3,18.655,11.65,11.65,0,0,0,11.65,7.005" transform="translate(0 -7.005)"/>
            </g>
          </g>
        </g>
        <path id="Trazado_40739" data-name="Trazado 40739" d="M11.65,0A11.65,11.65,0,1,0,23.3,11.65,11.65,11.65,0,0,0,11.65,0" fill="#fff"/>
        <path id="Trazado_40740" data-name="Trazado 40740" d="M9.792,19.88A10.219,10.219,0,0,0,20.011,30.1V9.661A10.219,10.219,0,0,0,9.792,19.88" transform="translate(-8.342 -8.23)" fill="#e02826"/>
        <path id="Trazado_40741" data-name="Trazado 40741" d="M78.8,9.661V30.1a10.22,10.22,0,0,0,0-20.439" transform="translate(-67.13 -8.23)" fill="#e76c6b"/>
        <g id="Grupo_31757" data-name="Grupo 31757" transform="translate(5.205 7.084)" opacity="0.8" style="mix-blend-mode: soft-light;isolation: isolate">
          <g id="Grupo_31756" data-name="Grupo 31756">
            <g id="Grupo_31755" data-name="Grupo 31755" clip-path="url(#clip-path-4)">
              <path id="Trazado_40742" data-name="Trazado 40742" d="M45.781,55.872c1.568-1.464,2.3-2.854,2.3-4.3a3.568,3.568,0,0,0-3.485-3.742,3.38,3.38,0,0,0-2.726,1.387c-.094.121-.179.242-.253.359-.075-.117-.159-.238-.253-.359a3.38,3.38,0,0,0-2.726-1.387,3.568,3.568,0,0,0-3.485,3.742c0,2.334,1.913,4.534,6.2,7.132a.505.505,0,0,0,.523,0q.578-.35,1.1-.691Z" transform="translate(-35.149 -47.834)" fill="#fff"/>
            </g>
          </g>
        </g>
        <path id="Trazado_40743" data-name="Trazado 40743" d="M39.226,56.81a.92.92,0,0,1-.477-.133c-4.428-2.682-6.4-4.992-6.4-7.487a3.992,3.992,0,0,1,3.9-4.157,3.762,3.762,0,0,1,2.98,1.454,3.762,3.762,0,0,1,2.98-1.454,3.992,3.992,0,0,1,3.9,4.157c0,1.568-.794,3.072-2.429,4.6a.415.415,0,0,1-.566-.607,5.605,5.605,0,0,0,2.165-3.992,3.136,3.136,0,0,0-3.07-3.327,2.979,2.979,0,0,0-2.4,1.227c-.086.11-.162.22-.23.327a.415.415,0,0,1-.7,0c-.068-.107-.144-.217-.23-.327a2.979,2.979,0,0,0-2.4-1.227,3.136,3.136,0,0,0-3.07,3.327c0,2.172,1.851,4.263,6,6.778a10.22,10.22,0,0,0,1.18-.683.415.415,0,1,1,.455.694q-.527.345-1.111.7A.92.92,0,0,1,39.226,56.81Z" transform="translate(-27.557 -38.363)" fill="#fff"/>
        <path id="Trazado_40744" data-name="Trazado 40744" d="M94.476,107.451a.415.415,0,0,1-.248-.748l.228-.172a.415.415,0,1,1,.5.66l-.236.178A.413.413,0,0,1,94.476,107.451Z" transform="translate(-80.131 -90.682)" fill="#fff"/>
      </g>
    </g>
  </g>
</svg>
