<svg xmlns="http://www.w3.org/2000/svg" width="21.094" height="24" viewBox="0 0 21.094 24">
  <g id="ubicacion" transform="translate(-31)">
    <path id="Trazado_39352" data-name="Trazado 39352" d="M44.444,335.221a.718.718,0,0,0-.661.323l-2.236,3.487-2.236-3.487a.691.691,0,0,0-.661-.323C34,335.714,31,337.3,31,339.285c0,2.742,5.428,4.219,10.547,4.219s10.547-1.477,10.547-4.219C52.094,337.3,49.1,335.714,44.444,335.221Z" transform="translate(0 -319.504)" fill="#61de56"/>
    <path id="Trazado_39353" data-name="Trazado 39353" d="M266.547,339.34c0,2.742-5.428,4.219-10.547,4.219v-4.472l2.236-3.487a.718.718,0,0,1,.661-.323C263.552,335.768,266.547,337.357,266.547,339.34Z" transform="translate(-214.453 -319.559)" fill="#13c37b"/>
    <path id="Trazado_39354" data-name="Trazado 39354" d="M98.734,0a7.729,7.729,0,0,0-6.286,12.234l5.7,8.981a.7.7,0,0,0,1.181,0l5.723-9.009A7.738,7.738,0,0,0,98.734,0Zm0,11.25a3.516,3.516,0,1,1,3.516-3.516A3.52,3.52,0,0,1,98.734,11.25Z" transform="translate(-57.188)" fill="#fd3018"/>
    <path id="Trazado_39355" data-name="Trazado 39355" d="M256,0V4.219h0a3.516,3.516,0,0,1,0,7.031h0V21.539a.679.679,0,0,0,.591-.323l5.723-9.009A7.738,7.738,0,0,0,256,0Z" transform="translate(-214.453)" fill="#e61e14"/>
  </g>
</svg>
