<svg xmlns="http://www.w3.org/2000/svg" width="28.767" height="24.705" viewBox="0 0 28.767 24.705">
  <g id="Grupo_31841" data-name="Grupo 31841" transform="translate(-3364.479 5268.493)">
    <path id="Trazado_40820" data-name="Trazado 40820" d="M21.754,60.388l-.526-1.052-1.954.977a.843.843,0,0,1-.754,0L11.3,56.7a.843.843,0,0,1-.466-.754V51.634L7.544,45.057H5.817L9,51.42a.843.843,0,0,1-.377,1.131L5.733,53.995A.843.843,0,0,1,4.6,53.618L.089,44.591A.842.842,0,0,1,0,44.214V36.992a.843.843,0,0,1,1.22-.754L8.263,39.76h4.315a.843.843,0,0,1,.754.466L14.9,43.371h3.09a.843.843,0,0,1,.843.843v6.827L20.194,52.4h1.92l1.357-1.357V48.727a.843.843,0,0,1,.843-.843h3.611a.843.843,0,0,1,.843.843v6.319a.843.843,0,0,1-.466.754l-1.954.977.526,1.052A.843.843,0,0,1,26.5,58.96l-3.611,1.805a.843.843,0,0,1-1.131-.377Z" transform="translate(3364.479 -5304.642)" fill="#ffd22f"/>
    <path id="Trazado_40821" data-name="Trazado 40821" d="M268.887,181.625a.843.843,0,0,0,.754,0l1.954-.977.526,1.052a.843.843,0,0,0,1.131.377l3.611-1.805a.843.843,0,0,0,.377-1.131l-.526-1.052,1.954-.977a.843.843,0,0,0,.466-.754v-6.319a.843.843,0,0,0-.843-.843H274.68a.843.843,0,0,0-.843.843v2.314l-1.357,1.357h-1.92l-1.357-1.357v-6.827a.843.843,0,0,0-.843-.843h-3.09v15.135Z" transform="translate(3114.113 -5425.953)" fill="#ffaa18"/>
  </g>
</svg>
